Coordinates
version=1
nRows=7
nColumns=33
inDegrees=yes

Units are S.I. units (second, meters, Newtons, ...)
Angles are in degrees.

endheader
time	ground_thorax_rot_x	ground_thorax_rot_y	ground_thorax_rot_z	ground_thorax_tx	ground_thorax_ty	ground_thorax_tz	clav_prot_r	clav_elev_r	scapula_abduction_r	scapula_elevation_r	scapula_upward_rot_r	scapula_winging_r	shoulder_elv_r	plane_of_elev_r	axial_rot_r	elbow_flexion_r	pro_sup_r	wrist_flex_r	wrist_dev_r	clav_prot_l	clav_elev_l	scapula_abduction_l	scapula_elevation_l	scapula_upward_rot_l	scapula_winging_l	shoulder_elv_l	plane_of_elev_l	axial_rot_l	elbow_flexion_l	pro_sup_l	wrist_flex_l	wrist_dev_l
     13.08000000	     27.92458630	     26.00017082	     39.31148870	   -113.18667373	    830.46032399	    -45.65906282	     12.28871673	     34.08968936	     24.20984889	     45.00000000	    -45.00000000	   2073.05305946	  -3165.27276394	     23.73839414	    179.99999979	   -354.92006848	    181.51706864	     14.92383824	     14.99579470	     -7.95431382	    -45.00000000	    -40.05131534	     45.00000000	    -45.00000000	   2625.98744196	  -3326.96137140	    135.21479197	   -131.98753719	    -10.93586614	    401.41649721	     13.66825525	    -17.10467978
     13.09000000	     27.94580775	     25.93563009	     39.19013599	   -114.15788878	    832.25138321	    -45.81716315	     12.28999991	     34.06445265	     24.19702029	     45.00000000	    -45.00000000	   2072.93054626	  -3165.23523088	     23.76593794	    179.99999979	   -355.00492138	    181.13947814	     14.99721154	     15.00068797	     -7.83417592	    -45.00000000	    -40.21643861	     45.00000000	    -45.00000000	   2626.02967935	  -3326.91039728	    135.21254308	   -131.78834978	    -10.97739995	    401.01592220	     13.74452708	    -17.14658110
     13.10000000	     28.02358140	     25.77400002	     39.03495981	   -115.05942589	    834.02002189	    -45.95851854	     12.28112037	     34.05561778	     24.35029741	     45.00000000	    -45.00000000	   2072.81818061	  -3165.23586089	     23.78770339	    179.99999979	   -355.01448717	    180.79714264	     15.05627284	     15.03096777	     -7.75350961	    -45.00000000	    -40.24935025	     45.00000000	    -45.00000000	   2626.07118104	  -3326.82698839	    135.17668535	   -131.54900272	    -11.04431404	    400.61406020	     13.85526052	    -17.22596163
     13.11000000	     27.99779359	     25.74185335	     38.90150727	   -115.89166729	    835.76618242	    -46.08490933	     12.30088242	     33.95499935	     24.18908638	     45.00000000	    -45.00000000	   2072.77447304	  -3165.16247526	     23.83654759	    179.99999979	   -355.15545602	    180.44252260	     15.11058740	     15.03383377	     -7.58321002	    -45.00000000	    -40.44911979	     45.00000000	    -45.00000000	   2626.10249925	  -3326.75377394	    135.11167636	   -131.41519515	    -11.08051276	    400.18788192	     13.91099487	    -17.22342998
     13.12000000	     28.10085598	     25.60954307	     38.75132707	   -116.65426424	    837.48358633	    -46.19663988	     12.30882946	     33.99614134	     24.37787551	     45.00000000	    -45.00000000	   2072.62338536	  -3165.17088396	     23.86682321	    179.99999979	   -355.15040922	    180.14064622	     15.17172722	     15.04701675	     -7.56577356	    -45.00000000	    -40.46338366	     45.00000000	    -45.00000000	   2626.11349290	  -3326.69292334	    135.11210580	   -131.16616338	    -11.11652405	    399.79115637	     14.01603664	    -17.33693192
     13.13000000	     28.20424586	     25.48105755	     38.61497600	   -117.35031569	    839.16848303	    -46.29319898	     12.29949947	     33.94925647	     24.54104628	     45.00000000	    -45.00000000	   2072.52222266	  -3165.14691911	     23.86312026	    179.99999979	   -355.20311168	    179.86968683	     15.24103018	     15.07809390	     -7.47955648	    -45.00000000	    -40.43385774	     45.00000000	    -45.00000000	   2626.16755530	  -3326.58405423	    135.04490104	   -130.97571581	    -11.16397444	    399.43406779	     14.12193841	    -17.43146331
     13.14000000	     28.18690473	     25.45171670	     38.53758396	   -117.98431412	    840.81274051	    -46.37268966	     12.30020072	     33.89702143	     24.48113537	     45.00000000	    -45.00000000	   2072.45523234	  -3165.09722525	     23.89629007	    179.99999979	   -355.31236851	    179.60954014	     15.31417345	     15.07321302	     -7.32978178	    -45.00000000	    -40.59053716	     45.00000000	    -45.00000000	   2626.20699086	  -3326.52572854	    135.00469124	   -130.80241246	    -11.19711487	    399.10747069	     14.17929589	    -17.47894511
